<svg width="25" height="24" viewBox="0 0 25 24" fill="none" xmlns="http://www.w3.org/2000/svg">
<path d="M16.5 3C16.5 2.73478 16.3946 2.48043 16.2071 2.29289C16.0196 2.10536 15.7652 2 15.5 2H9.5C9.23478 2 8.98043 2.10536 8.79289 2.29289C8.60536 2.48043 8.5 2.73478 8.5 3V8H3.5C3.23478 8 2.98043 8.10536 2.79289 8.29289C2.60536 8.48043 2.5 8.73478 2.5 9V15C2.5 15.2652 2.60536 15.5196 2.79289 15.7071C2.98043 15.8946 3.23478 16 3.5 16H8.5V21C8.5 21.2652 8.60536 21.5196 8.79289 21.7071C8.98043 21.8946 9.23478 22 9.5 22H15.5C15.7652 22 16.0196 21.8946 16.2071 21.7071C16.3946 21.5196 16.5 21.2652 16.5 21V16H21.5C21.7652 16 22.0196 15.8946 22.2071 15.7071C22.3946 15.5196 22.5 15.2652 22.5 15V9C22.5 8.73478 22.3946 8.48043 22.2071 8.29289C22.0196 8.10536 21.7652 8 21.5 8H16.5V3Z" stroke="black" stroke-width="2" stroke-linecap="round" stroke-linejoin="round"/>
</svg>
