<svg width="25" height="24" viewBox="0 0 25 24" fill="none" xmlns="http://www.w3.org/2000/svg">
<g clip-path="url(#clip0_198338_13741)">
<path d="M8.64299 4.125C8.64299 3.68179 8.74275 3.24292 8.93659 2.83344C9.13043 2.42397 9.41455 2.05191 9.77272 1.73851C10.1309 1.42512 10.5561 1.17652 11.0241 1.00691C11.492 0.837297 11.9936 0.75 12.5001 0.75C13.0067 0.75 13.5082 0.837297 13.9762 1.00691C14.4442 1.17652 14.8694 1.42512 15.2275 1.73851C15.5857 2.05191 15.8698 2.42397 16.0637 2.83344C16.2575 3.24292 16.3573 3.68179 16.3573 4.125C16.3573 4.56821 16.2575 5.00708 16.0637 5.41656C15.8698 5.82603 15.5857 6.19809 15.2275 6.51149C14.8694 6.82488 14.4442 7.07348 13.9762 7.24309C13.5082 7.4127 13.0067 7.5 12.5001 7.5C11.9936 7.5 11.492 7.4127 11.0241 7.24309C10.5561 7.07348 10.1309 6.82488 9.77272 6.51149C9.41455 6.19809 9.13043 5.82603 8.93659 5.41656C8.74275 5.00708 8.64299 4.56821 8.64299 4.125ZM2.62691 6.77344C3.32334 5.93438 4.66263 5.75156 5.62156 6.36094L7.56084 7.59375C8.99656 8.50781 10.7269 9 12.5001 9C14.2733 9 16.0037 8.50781 17.4394 7.59375L19.3787 6.35625C20.3376 5.74688 21.6769 5.93438 22.3733 6.76875C23.0698 7.60313 22.8555 8.77969 21.9019 9.38906L19.9626 10.6266C19.2341 11.0906 18.4573 11.4797 17.643 11.7984V13.5H7.35727V11.7984C6.54299 11.4844 5.7662 11.0906 5.03763 10.6266L3.09834 9.38906C2.13941 8.77969 1.93049 7.60781 2.62691 6.76875V6.77344ZM7.43763 15.4359L10.6841 17.9203L9.2912 19.6641L10.593 20.8031C11.4287 21.5344 11.4287 22.7203 10.593 23.4563C9.75727 24.1922 8.40191 24.1875 7.56084 23.4563L4.98941 21.2063C4.25013 20.5594 4.14834 19.5469 4.74299 18.8016L7.43227 15.4359H7.43763ZM14.3216 17.9203L17.568 15.4359L20.2573 18.8016C20.8519 19.5469 20.7501 20.5594 20.0162 21.2016L17.4448 23.4516C16.6091 24.1828 15.2537 24.1828 14.4126 23.4516C13.5716 22.7203 13.5769 21.5344 14.4126 20.7984L15.7144 19.6594L14.3216 17.9156V17.9203Z" fill="black"/>
</g>
<defs>
<clipPath id="clip0_198338_13741">
<rect width="24" height="24" fill="white" transform="translate(0.5)"/>
</clipPath>
</defs>
</svg>
