<svg width="25" height="24" viewBox="0 0 25 24" fill="none" xmlns="http://www.w3.org/2000/svg">
<path d="M20 7.0275V2.25C20 2.05109 19.921 1.86032 19.7803 1.71967C19.6397 1.57902 19.4489 1.5 19.25 1.5H17V3H18.5V8.04C18.5 8.04 20.75 8.42025 20.75 11.25V21H18.5V22.5H21.5C21.6989 22.5 21.8897 22.421 22.0303 22.2803C22.171 22.1397 22.25 21.9489 22.25 21.75V11.25C22.25 8.661 20.8002 7.482 20 7.0275ZM14.75 7.0275V2.25C14.75 2.05109 14.671 1.86032 14.5303 1.71967C14.3897 1.57902 14.1989 1.5 14 1.5H11.75V3H13.25V8.04C13.25 8.04 15.5 8.42025 15.5 11.25V21H13.25V22.5H16.25C16.4489 22.5 16.6397 22.421 16.7803 22.2803C16.921 22.1397 17 21.9489 17 21.75V11.25C17 8.661 15.5503 7.482 14.75 7.0275ZM9.5 7.0275V2.25C9.5 2.05109 9.42098 1.86032 9.28033 1.71967C9.13968 1.57902 8.94891 1.5 8.75 1.5H5.75C5.55109 1.5 5.36032 1.57902 5.21967 1.71967C5.07902 1.86032 5 2.05109 5 2.25V7.0275C4.19975 7.482 2.75 8.661 2.75 11.25V21.75C2.75 21.9489 2.82902 22.1397 2.96967 22.2803C3.11032 22.421 3.30109 22.5 3.5 22.5H11C11.1989 22.5 11.3897 22.421 11.5303 22.2803C11.671 22.1397 11.75 21.9489 11.75 21.75V11.25C11.75 8.661 10.3003 7.482 9.5 7.0275ZM10.25 21H4.25V11.25C4.25 8.421 6.5 8.04 6.5 8.04V3H8V8.04C8 8.04 10.25 8.421 10.25 11.25V21Z" fill="black"/>
</svg>
