<svg width="25" height="24" viewBox="0 0 25 24" fill="none" xmlns="http://www.w3.org/2000/svg">
<path d="M11.4223 1.21533L7.68168 10.3264L8.86762 10.5421L10.0489 9.42174L10.2645 11.0389L11.6942 11.8171L10.227 12.5202L9.93168 14.1186L8.80668 12.9421L7.19418 13.153L7.96762 11.7186L7.50825 10.753L4.58653 17.8639C4.47075 18.4545 4.59965 18.8952 4.93528 19.3124C5.277 19.7342 5.85825 20.1092 6.61762 20.3999C6.95512 20.5311 7.32075 20.6436 7.7145 20.7374L7.85981 20.2733L6.71606 18.7452L8.62387 18.717L9.72543 17.1608L10.3442 18.9655L12.1676 19.5327L10.6348 20.6764L10.6395 21.1499C11.2582 21.1874 11.8911 21.1967 12.5239 21.178C14.7082 21.117 16.8879 20.7467 18.3645 20.1655C19.1051 19.8749 19.6629 19.528 19.9536 19.1952C20.2442 18.8624 20.3098 18.6092 20.1645 18.2342L14.6239 7.44361L14.4129 7.43424L13.3911 8.69986L12.9645 7.12955L11.4411 6.5483L12.8051 5.65768L12.8848 4.05971L11.4223 1.21533ZM14.9239 12.8389L16.1192 14.3296L18.027 14.2452L16.977 15.8389L17.6473 17.6249L15.8051 17.1233L14.3145 18.3139L14.2254 16.4061L12.6317 15.3561L14.4176 14.6811L14.9239 12.8389ZM20.9707 19.1014C20.8864 19.3358 20.7598 19.5561 20.5911 19.7483C20.502 19.8514 20.3989 19.9499 20.2864 20.0436C20.3004 20.2545 20.2817 20.442 20.2348 20.6061C20.1082 21.0842 19.7801 21.4264 19.2129 21.6889C18.0786 22.2139 16.0442 22.2749 13.8692 21.9655C13.8457 21.9608 13.8223 21.9561 13.7989 21.9561C13.3864 21.9889 12.9645 22.0077 12.5473 22.0217C11.6332 22.0452 10.7145 22.0217 9.83325 21.9374C11.0989 22.3124 12.4442 22.6124 13.752 22.7999C16.0067 23.1186 18.1301 23.1233 19.5692 22.453C20.2911 22.1202 20.8489 21.5764 21.0504 20.8264C21.1864 20.3155 21.1582 19.7436 20.9707 19.1014Z" fill="black"/>
</svg>
