<svg width="25" height="24" viewBox="0 0 25 24" fill="none" xmlns="http://www.w3.org/2000/svg">
<path d="M7.50039 20C6.75039 20 6.09606 19.7627 5.53739 19.288C4.97872 18.8133 4.64972 18.2007 4.55039 17.45C3.91706 17.1167 3.41706 16.6417 3.05039 16.025C2.68372 15.4083 2.50039 14.7333 2.50039 14C2.50039 13.1167 2.75439 12.329 3.26239 11.637C3.77039 10.945 4.44972 10.466 5.30039 10.2L3.50039 8.4L3.20039 8.7C3.01706 8.88333 2.78372 8.975 2.50039 8.975C2.21706 8.975 1.98372 8.88333 1.80039 8.7C1.61706 8.51667 1.52539 8.28333 1.52539 8C1.52539 7.71667 1.61706 7.48333 1.80039 7.3L3.80039 5.3C3.98372 5.11667 4.21706 5.025 4.50039 5.025C4.78372 5.025 5.01706 5.11667 5.20039 5.3C5.38372 5.48333 5.47539 5.71667 5.47539 6C5.47539 6.28333 5.38372 6.51667 5.20039 6.7L4.90039 7L6.30039 8.4L7.10039 6.05C7.30039 5.43333 7.66306 4.93767 8.18839 4.563C8.71372 4.18833 9.30106 4.00067 9.95039 4H15.0504C15.7004 4 16.2881 4.18767 16.8134 4.563C17.3387 4.93833 17.7011 5.434 17.9004 6.05L19.2504 10.1C20.2004 10.2833 20.9797 10.7417 21.5884 11.475C22.1971 12.2083 22.5011 13.05 22.5004 14C22.5004 14.7333 22.3171 15.4083 21.9504 16.025C21.5837 16.6417 21.0837 17.1167 20.4504 17.45C20.3504 18.2 20.0214 18.8127 19.4634 19.288C18.9054 19.7633 18.2511 20.0007 17.5004 20C16.8671 20 16.2961 19.8167 15.7874 19.45C15.2787 19.0833 14.9164 18.6 14.7004 18H10.3004C10.0837 18.6 9.72106 19.0833 9.21239 19.45C8.70372 19.8167 8.13306 20 7.50039 20ZM7.90039 10H11.5004V6H9.95039C9.73372 6 9.54206 6.06267 9.37539 6.188C9.20872 6.31333 9.08372 6.484 9.00039 6.7L7.90039 10ZM13.5004 10H17.1004L16.0004 6.7C15.9171 6.48333 15.7921 6.31233 15.6254 6.187C15.4587 6.06167 15.2671 5.99933 15.0504 6H13.5004V10ZM7.50039 18C7.78372 18 8.02139 17.904 8.21339 17.712C8.40539 17.52 8.50106 17.2827 8.50039 17C8.49972 16.7173 8.40372 16.48 8.21239 16.288C8.02106 16.096 7.78372 16 7.50039 16C7.21706 16 6.97972 16.096 6.78839 16.288C6.59706 16.48 6.50106 16.7173 6.50039 17C6.49972 17.2827 6.59572 17.5203 6.78839 17.713C6.98106 17.9057 7.21839 18.0013 7.50039 18ZM17.5004 18C17.7837 18 18.0214 17.904 18.2134 17.712C18.4054 17.52 18.5011 17.2827 18.5004 17C18.4997 16.7173 18.4037 16.48 18.2124 16.288C18.0211 16.096 17.7837 16 17.5004 16C17.2171 16 16.9797 16.096 16.7884 16.288C16.5971 16.48 16.5011 16.7173 16.5004 17C16.4997 17.2827 16.5957 17.5203 16.7884 17.713C16.9811 17.9057 17.2184 18.0013 17.5004 18Z" fill="black"/>
</svg>
