<svg width="25" height="24" viewBox="0 0 25 24" fill="none" xmlns="http://www.w3.org/2000/svg">
<path d="M5.82992 3.27219C6.45386 3.04969 7.12814 3.00882 7.77439 3.15434C8.42064 3.29986 9.01232 3.62579 9.48068 4.09425C9.94903 4.56271 10.2748 5.15447 10.4202 5.80075C10.5656 6.44703 10.5246 7.1213 10.3019 7.74519L21.1469 18.5902L19.0249 20.7112L8.17992 9.86719C7.55587 10.0898 6.88145 10.1307 6.23506 9.98519C5.58868 9.83964 4.99688 9.51361 4.52848 9.045C4.06008 8.57639 3.73431 7.98445 3.58905 7.33799C3.4438 6.69154 3.48502 6.01714 3.70792 5.39319L5.94392 7.63019C6.22682 7.90343 6.60573 8.05462 6.99902 8.0512C7.39232 8.04778 7.76854 7.89003 8.04665 7.61192C8.32476 7.33381 8.48251 6.95759 8.48593 6.56429C8.48935 6.171 8.33816 5.79209 8.06492 5.50919L5.82992 3.27219ZM16.1969 5.15519L19.3789 3.38719L20.7929 4.80219L19.0249 7.98319L17.2569 8.33719L15.1369 10.4582L13.7219 9.04419L15.8429 6.92319L16.1969 5.15519ZM9.12592 12.9332L11.2469 15.0552L6.29692 20.0052C6.02396 20.2756 5.65764 20.431 5.2735 20.4392C4.88937 20.4475 4.51671 20.308 4.23237 20.0496C3.94804 19.7912 3.77372 19.4335 3.74535 19.0503C3.71699 18.6671 3.83674 18.2877 4.07992 17.9902L4.17692 17.8832L9.12592 12.9332Z" fill="black"/>
</svg>
