<svg width="23" height="26" viewBox="0 0 23 26" fill="none" xmlns="http://www.w3.org/2000/svg">
<path d="M22.4424 5.35669C22.3583 5.2891 22.2573 5.24568 22.1504 5.23106C22.0435 5.21644 21.9346 5.23117 21.8354 5.27369L12.1754 9.45669C11.7554 9.63969 11.2294 9.72669 10.6894 9.72669C9.93639 9.72969 9.15739 9.55469 8.61439 9.31669C8.44892 9.24699 8.29136 9.15983 8.14439 9.05669C8.18439 9.03668 8.23439 9.01469 8.28939 8.99269L17.0754 5.18869L18.3854 5.74869V4.11169C18.3874 3.99495 18.3629 3.87927 18.3139 3.7733C18.2649 3.66732 18.1926 3.57379 18.1024 3.49969C18.0186 3.43218 17.918 3.38878 17.8114 3.37416C17.7048 3.35953 17.5963 3.37424 17.4974 3.41669L7.83739 7.59969C7.53939 7.71969 7.28339 7.86769 7.06739 8.08269C6.81727 8.32945 6.67521 8.66534 6.67239 9.01669C6.67239 9.02669 6.67539 9.04369 6.67539 9.04369V23.7737L6.67339 23.7937C6.67339 23.7977 6.67639 23.7997 6.67639 23.8037V23.8197H6.67839C6.69839 24.3347 6.95839 24.6627 7.20639 24.8947C7.98639 25.5827 9.29639 25.9677 10.6904 25.9877C11.3504 25.9877 12.0204 25.8877 12.6404 25.6217L22.3034 21.4377C22.5584 21.3277 22.7254 21.0547 22.7254 20.7457V5.96869C22.7269 5.85201 22.7023 5.73648 22.6533 5.63057C22.6044 5.52467 22.5323 5.43108 22.4424 5.35669ZM16.3154 2.55669C16.2984 2.33669 16.2074 2.12669 16.0454 2.00069C15.9613 1.9331 15.8603 1.88968 15.7534 1.87506C15.6465 1.86044 15.5376 1.87517 15.4384 1.91769L5.77839 6.09869C5.35839 6.28069 4.83139 6.36869 4.29239 6.36869C3.53939 6.37069 2.76039 6.19569 2.21739 5.95669C2.05175 5.88815 1.89414 5.80163 1.74739 5.69869C1.78739 5.67869 1.83739 5.65669 1.89239 5.63469L10.6794 1.83069L11.9894 2.39069V0.755686C11.9912 0.638877 11.9666 0.523174 11.9174 0.417206C11.8682 0.311238 11.7957 0.21774 11.7054 0.143686C11.6214 0.076191 11.5206 0.0328105 11.4139 0.0181898C11.3071 0.0035691 11.1984 0.0182589 11.0994 0.060686L1.43939 4.24469C1.14139 4.36469 0.886391 4.51169 0.669391 4.72769C0.419632 4.97461 0.277949 5.31048 0.275391 5.66169C0.275391 5.67369 0.27839 5.68969 0.27839 5.68969V20.4667H0.280391C0.300391 20.9817 0.560391 21.3097 0.808391 21.5417C1.58839 22.2297 2.89839 22.6137 4.29339 22.6337C4.67223 22.6315 5.04985 22.5906 5.42039 22.5117V9.04269C5.41039 8.34269 5.69039 7.67069 6.18239 7.18669C6.52325 6.85604 6.92825 6.59875 7.37239 6.43069L16.3154 2.55669Z" fill="black"/>
</svg>
