<svg width="21" height="18" viewBox="0 0 21 18" fill="none" xmlns="http://www.w3.org/2000/svg">
<path d="M19.272 6.155L17.904 2.051C17.7056 1.45348 17.3238 0.9337 16.8131 0.565508C16.3024 0.197316 15.6886 -0.000558206 15.059 1.18278e-06H5.941C5.31139 -0.000558206 4.69761 0.197316 4.18688 0.565508C3.67615 0.9337 3.29445 1.45348 3.096 2.051L1.728 6.155C1.36422 6.30722 1.05356 6.56357 0.835067 6.89185C0.616573 7.22012 0.5 7.60566 0.5 8V13C0.5 13.738 0.904 14.376 1.5 14.723V17C1.5 17.2652 1.60536 17.5196 1.79289 17.7071C1.98043 17.8946 2.23478 18 2.5 18H3.5C3.76522 18 4.01957 17.8946 4.20711 17.7071C4.39464 17.5196 4.5 17.2652 4.5 17V15H16.5V17C16.5 17.2652 16.6054 17.5196 16.7929 17.7071C16.9804 17.8946 17.2348 18 17.5 18H18.5C18.7652 18 19.0196 17.8946 19.2071 17.7071C19.3946 17.5196 19.5 17.2652 19.5 17V14.723C19.8034 14.549 20.0556 14.2981 20.2311 13.9956C20.4067 13.6932 20.4994 13.3497 20.5 13V8C20.5 7.60566 20.3834 7.22012 20.1649 6.89185C19.9464 6.56357 19.6358 6.30722 19.272 6.155ZM5.941 2H15.058C15.489 2 15.871 2.274 16.007 2.684L17.113 6H3.887L4.992 2.684C5.05835 2.4848 5.18572 2.31153 5.35605 2.18876C5.52638 2.06599 5.73104 1.99995 5.941 2ZM4 12C3.80295 11.9999 3.60785 11.9611 3.42582 11.8856C3.2438 11.8101 3.07842 11.6995 2.93913 11.5602C2.79984 11.4208 2.68937 11.2553 2.61403 11.0733C2.53868 10.8912 2.49993 10.696 2.5 10.499C2.50007 10.302 2.53894 10.1068 2.61441 9.92482C2.68988 9.7428 2.80046 9.57742 2.93984 9.43813C3.07922 9.29885 3.24467 9.18838 3.42675 9.11303C3.60882 9.03768 3.80395 8.99893 4.001 8.999C4.39896 8.99913 4.78056 9.15735 5.06187 9.43884C5.34317 9.72033 5.50113 10.102 5.501 10.5C5.50087 10.898 5.34265 11.2796 5.06116 11.5609C4.77967 11.8422 4.39796 12.0001 4 12ZM17 12C16.803 11.9999 16.6078 11.9611 16.4258 11.8856C16.2438 11.8101 16.0784 11.6995 15.9391 11.5602C15.7998 11.4208 15.6894 11.2553 15.614 11.0733C15.5387 10.8912 15.4999 10.696 15.5 10.499C15.5001 10.302 15.5389 10.1068 15.6144 9.92482C15.6899 9.7428 15.8005 9.57742 15.9398 9.43813C16.0792 9.29885 16.2447 9.18838 16.4267 9.11303C16.6088 9.03768 16.804 8.99893 17.001 8.999C17.399 8.99913 17.7806 9.15735 18.0619 9.43884C18.3432 9.72033 18.5011 10.102 18.501 10.5C18.5009 10.898 18.3427 11.2796 18.0612 11.5609C17.7797 11.8422 17.398 12.0001 17 12Z" fill="black"/>
</svg>
