<svg width="25" height="24" viewBox="0 0 25 24" fill="none" xmlns="http://www.w3.org/2000/svg">
<path d="M0.5 11.9141C0.5 12.4618 0.890137 12.793 1.37321 12.793C1.67129 12.793 1.90756 12.6332 2.11315 12.4049L12.1405 2.25933C12.2532 2.1337 12.3768 2.08793 12.5101 2.08793C12.6337 2.08793 12.7468 2.1337 12.8695 2.25933L22.8868 12.4049C23.1025 12.6332 23.3388 12.793 23.6268 12.793C24.1094 12.793 24.5 12.4618 24.5 11.9141C24.5 11.5717 24.3869 11.3551 24.1918 11.1608L20.6368 7.56631V0.821441C20.6368 0.319422 20.3492 0 19.8973 0H18.5515C18.1096 0 17.8015 0.319422 17.8015 0.821441V4.70174L13.7327 0.570188C13.3732 0.193796 12.9313 0.0116863 12.5 0.0116863C12.0682 0.0116863 11.6369 0.194283 11.2669 0.570675L0.808164 11.1608C0.623178 11.3551 0.5 11.5717 0.5 11.9141ZM3.4383 21.4889C3.4383 23.0753 4.30142 24 5.74975 24H9.91107V15.8854C9.91107 15.3605 10.2293 15.0187 10.7019 15.0187H14.3288C14.8014 15.0187 15.1095 15.3605 15.1095 15.8854V24H19.2603C20.7087 24 21.5617 23.0753 21.5617 21.4889V13.1353L12.8388 4.40472C12.7258 4.29077 12.6026 4.2338 12.4794 4.2338C12.3663 4.2338 12.2532 4.29077 12.13 4.4164L3.4383 13.1922V21.4889Z" fill="black"/>
</svg>
